<svg xmlns="http://www.w3.org/2000/svg" viewBox="0 0 128 128"><defs><linearGradient id="bg" x2=".2" y2="1"><stop stop-color="#33353c"/><stop offset="1" stop-color="#0b0c10"/></linearGradient></defs><rect x="4" y="4" width="120" height="120" rx="27" fill="url(#bg)"/><path fill="white" d="M37 56c0-6 5-9 5-9-3-4-7-5-9-5-4 0-7 2-9 2s-5-2-8-2c-4 0-8 2-10 6-4 7-1 18 3 24 2 3 4 6 7 6s5-2 9-2 5 2 8 2 5-3 7-6c2-3 3-6 3-7-1 0-6-3-6-9Z" transform="translate(16 0)"/><path d="M45 39c2-3 3-6 3-9-3 0-6 2-8 4-2 2-3 5-3 8 3 0 6-1 8-3Z" fill="white"/><path d="M68 43v29q0 8 10 6M62 48h16M84 48l10 28 10-28" fill="none" stroke="white" stroke-width="5" stroke-linejoin="round" stroke-linecap="round"/><rect x="4.5" y="4.5" width="119" height="119" rx="26.5" fill="none" stroke="white" stroke-opacity=".45"/></svg>